<svg xmlns="http://www.w3.org/2000/svg" width="1584" height="396" viewBox="0 0 1584 396" role="img" aria-labelledby="title desc"><title id="title">Palle Prashanth — Full-Stack Developer, AI Builder &amp; Vibe Coder</title><desc id="desc">Premium developer profile banner featuring full-stack development, AI tools and vibe coding.</desc><defs><linearGradient id="bg" x1="0" y1="0" x2="1" y2="1"><stop offset="0" stop-color="#07111F"/><stop offset="0.5" stop-color="#0D1B2A"/><stop offset="1" stop-color="#12263A"/></linearGradient><linearGradient id="line" x1="0" y1="0" x2="1" y2="0"><stop offset="0" stop-color="#67E8F9"/><stop offset="0.5" stop-color="#A78BFA"/><stop offset="1" stop-color="#F8FAFC"/></linearGradient><pattern id="grid" width="28" height="28" patternUnits="userSpaceOnUse"><path d="M28 0H0V28" fill="none" stroke="#CBD5E1" stroke-opacity=".045"/></pattern><filter id="blur"><feGaussianBlur stdDeviation="28"/></filter></defs><rect width="1584" height="396" rx="30" fill="url(#bg)"/><rect width="1584" height="396" rx="30" fill="url(#grid)"/><circle cx="1390" cy="0" r="250" fill="#38BDF8" opacity=".12" filter="url(#blur)"/><circle cx="1510" cy="390" r="210" fill="#8B5CF6" opacity=".08" filter="url(#blur)"/><path d="M0 340C300 255 430 405 720 315S1180 215 1584 290" fill="none" stroke="#67E8F9" stroke-opacity=".12" stroke-width="2"/><g transform="translate(92 62)"><rect width="96" height="4" rx="2" fill="url(#line)"/><text x="0" y="38" fill="#94A3B8" font-family="Inter,Segoe UI,Arial,sans-serif" font-size="15" font-weight="600" letter-spacing="3">DIGITAL BUILDER</text><text x="0" y="105" fill="#F8FAFC" font-family="Inter,Segoe UI,Arial,sans-serif" font-size="50" font-weight="800">PALLE PRASHANTH</text><text x="2" y="143" fill="#E2E8F0" font-family="Inter,Segoe UI,Arial,sans-serif" font-size="22">Full-Stack Developer  ·  AI Tools  ·  Vibe Coder</text><g transform="translate(0 178)"><rect width="640" height="58" rx="29" fill="#F8FAFC" fill-opacity=".055" stroke="#E2E8F0" stroke-opacity=".13"/><circle cx="29" cy="29" r="7" fill="#67E8F9"/><text x="49" y="35" fill="#CBD5E1" font-family="Inter,Segoe UI,Arial,sans-serif" font-size="16">Building products with code, creativity &amp; AI</text></g></g><g transform="translate(1000 58)"><rect width="470" height="276" rx="28" fill="#06101C" fill-opacity=".78" stroke="#CBD5E1" stroke-opacity=".13"/><rect x="20" y="20" width="430" height="236" rx="20" fill="none" stroke="#67E8F9" stroke-opacity=".08"/><g transform="translate(42 42)"><circle cx="9" cy="9" r="9" fill="#67E8F9"/><text x="29" y="15" fill="#E2E8F0" font-family="Inter,Segoe UI,Arial,sans-serif" font-size="15" font-weight="700">MY BUILD LOOP</text><g transform="translate(0 50)"><rect width="108" height="42" rx="12" fill="#38BDF8" fill-opacity=".10" stroke="#38BDF8" stroke-opacity=".25"/><text x="54" y="27" text-anchor="middle" fill="#BAE6FD" font-family="Inter,Segoe UI,Arial,sans-serif" font-size="13" font-weight="700">IDEA</text><path d="M116 21H136" stroke="#64748B" stroke-width="2"/><rect x="144" width="108" height="42" rx="12" fill="#8B5CF6" fill-opacity=".10" stroke="#8B5CF6" stroke-opacity=".25"/><text x="198" y="27" text-anchor="middle" fill="#DDD6FE" font-family="Inter,Segoe UI,Arial,sans-serif" font-size="13" font-weight="700">AI + CODE</text><path d="M260 21H280" stroke="#64748B" stroke-width="2"/><rect x="288" width="108" height="42" rx="12" fill="#F8FAFC" fill-opacity=".07" stroke="#CBD5E1" stroke-opacity=".20"/><text x="342" y="27" text-anchor="middle" fill="#F8FAFC" font-family="Inter,Segoe UI,Arial,sans-serif" font-size="13" font-weight="700">SHIP</text></g><g transform="translate(0 125)" font-family="ui-monospace,SFMono-Regular,Consolas,monospace" font-size="13"><text x="0" y="16" fill="#64748B">stack</text><text x="92" y="16" fill="#E2E8F0">Full-Stack Web</text><text x="0" y="43" fill="#64748B">tools</text><text x="92" y="43" fill="#E2E8F0">AI • Git • VS Code</text><text x="0" y="70" fill="#64748B">mindset</text><text x="92" y="70" fill="#E2E8F0">Build fast. Learn. Improve.</text></g></g></g><rect x="0" y="392" width="1584" height="4" fill="url(#line)"/></svg>