<svg xmlns="http://www.w3.org/2000/svg" width="1584" height="396" viewBox="0 0 1584 396" role="img" aria-labelledby="title desc">
<title id="title">Palle Prashanth — Full-Stack Developer | AI Tools | Vibe Coder</title>
<desc id="desc">A distinctive modern developer banner focused on building digital products with full-stack development, AI tools and vibe coding.</desc>
<defs>
  <linearGradient id="bg" x1="0" y1="0" x2="1" y2="1"><stop offset="0" stop-color="#09090B"/><stop offset="0.55" stop-color="#111827"/><stop offset="1" stop-color="#171717"/></linearGradient>
  <linearGradient id="accent" x1="0" y1="0" x2="1" y2="0"><stop offset="0" stop-color="#22D3EE"/><stop offset="0.5" stop-color="#818CF8"/><stop offset="1" stop-color="#F472B6"/></linearGradient>
  <radialGradient id="glow1"><stop offset="0" stop-color="#22D3EE" stop-opacity=".22"/><stop offset="1" stop-color="#22D3EE" stop-opacity="0"/></radialGradient>
  <radialGradient id="glow2"><stop offset="0" stop-color="#A78BFA" stop-opacity=".20"/><stop offset="1" stop-color="#A78BFA" stop-opacity="0"/></radialGradient>
  <pattern id="dots" width="24" height="24" patternUnits="userSpaceOnUse"><circle cx="2" cy="2" r="1" fill="#fff" opacity=".075"/></pattern>
</defs>
<rect width="1584" height="396" rx="28" fill="url(#bg)"/>
<rect width="1584" height="396" rx="28" fill="url(#dots)"/>
<circle cx="1420" cy="35" r="310" fill="url(#glow1)"/>
<circle cx="1190" cy="360" r="280" fill="url(#glow2)"/>

<g transform="translate(86 58)">
  <rect x="0" y="0" width="112" height="5" rx="2.5" fill="url(#accent)"/>
  <text x="0" y="40" fill="#A1A1AA" font-family="Inter,Segoe UI,Arial,sans-serif" font-size="14" font-weight="700" letter-spacing="4">BUILD • CREATE • SHIP</text>
  <text x="0" y="105" fill="#FAFAFA" font-family="Inter,Segoe UI,Arial,sans-serif" font-size="52" font-weight="850" letter-spacing="-1">PALLE PRASHANTH</text>
  <text x="2" y="143" fill="#E4E4E7" font-family="Inter,Segoe UI,Arial,sans-serif" font-size="21" font-weight="500">Full-Stack Developer  ·  AI Tools  ·  Vibe Coder</text>
  <text x="2" y="180" fill="#A1A1AA" font-family="Inter,Segoe UI,Arial,sans-serif" font-size="16">Turning ideas into useful, modern digital products.</text>
  <g transform="translate(0 211)">
    <rect width="500" height="48" rx="24" fill="#FFFFFF" fill-opacity=".045" stroke="#FFFFFF" stroke-opacity=".12"/>
    <circle cx="25" cy="24" r="6" fill="#22D3EE"/>
    <text x="43" y="30" fill="#D4D4D8" font-family="ui-monospace,SFMono-Regular,Consolas,monospace" font-size="14">code + creativity + AI</text>
    <text x="222" y="30" fill="#71717A" font-family="ui-monospace,SFMono-Regular,Consolas,monospace" font-size="14">→</text>
    <text x="244" y="30" fill="#E4E4E7" font-family="ui-monospace,SFMono-Regular,Consolas,monospace" font-size="14">real products</text>
  </g>
</g>

<g transform="translate(940 54)">
  <rect width="540" height="288" rx="30" fill="#09090B" fill-opacity=".72" stroke="#FFFFFF" stroke-opacity=".13"/>
  <path d="M28 64H512M28 122H512M28 180H512M28 238H512" stroke="#FFFFFF" stroke-opacity=".055"/>
  <path d="M122 24V264M242 24V264M362 24V264M482 24V264" stroke="#FFFFFF" stroke-opacity=".04"/>
  <g transform="translate(34 28)">
    <circle cx="9" cy="9" r="9" fill="#22D3EE"/>
    <text x="28" y="15" fill="#F4F4F5" font-family="Inter,Segoe UI,Arial,sans-serif" font-size="14" font-weight="700" letter-spacing="2">MY WORKFLOW</text>
    <g transform="translate(0 50)">
      <rect width="128" height="50" rx="14" fill="#22D3EE" fill-opacity=".09" stroke="#22D3EE" stroke-opacity=".30"/>
      <text x="64" y="31" text-anchor="middle" fill="#A5F3FC" font-family="Inter,Segoe UI,Arial,sans-serif" font-size="13" font-weight="700">IDEA</text>
      <path d="M138 25H158" stroke="#52525B" stroke-width="2"/>
      <rect x="168" width="128" height="50" rx="14" fill="#818CF8" fill-opacity=".10" stroke="#818CF8" stroke-opacity=".30"/>
      <text x="232" y="31" text-anchor="middle" fill="#C7D2FE" font-family="Inter,Segoe UI,Arial,sans-serif" font-size="13" font-weight="700">AI + CODE</text>
      <path d="M306 25H326" stroke="#52525B" stroke-width="2"/>
      <rect x="336" width="128" height="50" rx="14" fill="#F472B6" fill-opacity=".08" stroke="#F472B6" stroke-opacity=".28"/>
      <text x="400" y="31" text-anchor="middle" fill="#FBCFE8" font-family="Inter,Segoe UI,Arial,sans-serif" font-size="13" font-weight="700">SHIP</text>
    </g>
    <g transform="translate(0 134)" font-family="ui-monospace,SFMono-Regular,Consolas,monospace" font-size="13">
      <text x="0" y="18" fill="#71717A">focus</text><text x="92" y="18" fill="#E4E4E7">Full-Stack Web</text>
      <text x="0" y="47" fill="#71717A">boost</text><text x="92" y="47" fill="#E4E4E7">AI Tools</text>
      <text x="0" y="76" fill="#71717A">style</text><text x="92" y="76" fill="#E4E4E7">Vibe Coding</text>
    </g>
  </g>
</g>
<rect x="0" y="392" width="1584" height="4" fill="url(#accent)"/>
</svg>