<svg xmlns="http://www.w3.org/2000/svg" width="1584" height="396" viewBox="0 0 1584 396" role="img" aria-label="Palle Prashanth — MERN Stack Developer">
  <defs>
    <linearGradient id="bg" x1="0" y1="0" x2="1" y2="1">
      <stop offset="0%" stop-color="#07111f"/>
      <stop offset="55%" stop-color="#0b1730"/>
      <stop offset="100%" stop-color="#101d35"/>
    </linearGradient>
    <linearGradient id="accent" x1="0" y1="0" x2="1" y2="0">
      <stop offset="0%" stop-color="#61dafb"/>
      <stop offset="50%" stop-color="#8b5cf6"/>
      <stop offset="100%" stop-color="#47a248"/>
    </linearGradient>
    <filter id="glow"><feGaussianBlur stdDeviation="8" result="blur"/><feMerge><feMergeNode in="blur"/><feMergeNode in="SourceGraphic"/></feMerge></filter>
    <pattern id="grid" width="44" height="44" patternUnits="userSpaceOnUse"><path d="M44 0H0V44" fill="none" stroke="#ffffff" stroke-opacity=".045"/></pattern>
  </defs>
  <rect width="1584" height="396" rx="22" fill="url(#bg)"/>
  <rect width="1584" height="396" rx="22" fill="url(#grid)"/>
  <circle cx="1380" cy="-10" r="250" fill="#61dafb" opacity=".06"/>
  <circle cx="1500" cy="330" r="230" fill="#8b5cf6" opacity=".06"/>
  <path d="M0 350 C320 285 470 410 760 340 S1210 270 1584 330" fill="none" stroke="url(#accent)" stroke-width="2" opacity=".35"/>
  <rect x="86" y="68" width="7" height="255" rx="3.5" fill="url(#accent)"/>
  <text x="126" y="112" fill="#61dafb" font-family="Arial, Helvetica, sans-serif" font-size="22" font-weight="700" letter-spacing="5">PALLE PRASHANTH</text>
  <text x="126" y="178" fill="#ffffff" font-family="Arial, Helvetica, sans-serif" font-size="53" font-weight="800">MERN STACK</text>
  <text x="126" y="238" fill="#ffffff" font-family="Arial, Helvetica, sans-serif" font-size="53" font-weight="800">DEVELOPER</text>
  <rect x="128" y="267" width="515" height="2" fill="url(#accent)"/>
  <text x="126" y="304" fill="#b9c6d8" font-family="Arial, Helvetica, sans-serif" font-size="20" letter-spacing="1.2">React • Node.js • Express.js • MongoDB</text>
  <text x="126" y="337" fill="#7f91aa" font-family="Arial, Helvetica, sans-serif" font-size="16" letter-spacing="1">FULL-STACK WEB DEVELOPMENT  /  REST APIs  /  REAL-WORLD PROJECTS</text>
  <g transform="translate(1010 92)">
    <rect x="0" y="0" width="430" height="210" rx="18" fill="#07101e" stroke="#263853" stroke-width="2"/>
    <circle cx="25" cy="25" r="5" fill="#ff6b6b"/><circle cx="45" cy="25" r="5" fill="#ffd166"/><circle cx="65" cy="25" r="5" fill="#47a248"/>
    <text x="30" y="70" fill="#61dafb" font-family="monospace" font-size="18">const developer = {</text>
    <text x="48" y="103" fill="#d8dee9" font-family="monospace" font-size="17">name: "Prashanth",</text>
    <text x="48" y="135" fill="#d8dee9" font-family="monospace" font-size="17">stack: "MERN",</text>
    <text x="48" y="167" fill="#d8dee9" font-family="monospace" font-size="17">focus: "Build &amp; Ship"</text>
    <text x="30" y="194" fill="#61dafb" font-family="monospace" font-size="18">};</text>
  </g>
  <text x="1450" y="350" fill="#5e7088" font-family="Arial, Helvetica, sans-serif" font-size="13" text-anchor="end" letter-spacing="2">BUILD • LEARN • DEPLOY</text>
</svg>
