<svg xmlns="http://www.w3.org/2000/svg" width="1584" height="396" viewBox="0 0 1584 396" role="img" aria-label="Palle Prashanth — Full Stack MERN Developer">
<defs>
 <linearGradient id="bg" x1="0" y1="0" x2="1" y2="1"><stop offset="0" stop-color="#050816"/><stop offset=".55" stop-color="#10152b"/><stop offset="1" stop-color="#1b0b2d"/></linearGradient>
 <linearGradient id="accent" x1="0" y1="0" x2="1" y2="0"><stop stop-color="#61dafb"/><stop offset=".5" stop-color="#8b5cf6"/><stop offset="1" stop-color="#22d3ee"/></linearGradient>
 <radialGradient id="glow"><stop stop-color="#61dafb" stop-opacity=".28"/><stop offset="1" stop-color="#61dafb" stop-opacity="0"/></radialGradient>
 <pattern id="grid" width="42" height="42" patternUnits="userSpaceOnUse"><path d="M42 0H0V42" fill="none" stroke="#fff" stroke-opacity=".035"/></pattern>
 <filter id="blur"><feGaussianBlur stdDeviation="26"/></filter>
</defs>
<rect width="1584" height="396" rx="28" fill="url(#bg)"/>
<rect width="1584" height="396" rx="28" fill="url(#grid)"/>
<circle cx="1320" cy="80" r="300" fill="url(#glow)" filter="url(#blur)"/>
<circle cx="1500" cy="350" r="220" fill="#8b5cf6" opacity=".08" filter="url(#blur)"/>
<path d="M0 345 C240 270 370 365 590 275 S950 190 1120 250 S1390 310 1584 160" fill="none" stroke="url(#accent)" stroke-width="2" opacity=".28"/>
<path d="M0 360 C250 285 390 378 600 288 S955 203 1135 263 S1400 323 1584 173" fill="none" stroke="#fff" stroke-width="1" opacity=".06"/>

<g transform="translate(92 72)">
 <rect width="66" height="66" rx="20" fill="#ffffff" fill-opacity=".055" stroke="#61dafb" stroke-opacity=".35"/>
 <circle cx="33" cy="33" r="21" fill="none" stroke="url(#accent)" stroke-width="3"/>
 <circle cx="33" cy="33" r="6" fill="#61dafb"/>
 <ellipse cx="33" cy="33" rx="30" ry="11" fill="none" stroke="#8b5cf6" stroke-width="2" transform="rotate(60 33 33)"/>
 <ellipse cx="33" cy="33" rx="30" ry="11" fill="none" stroke="#22d3ee" stroke-width="2" transform="rotate(-60 33 33)"/>
</g>

<text x="178" y="99" fill="#a5b4fc" font-family="Arial,Helvetica,sans-serif" font-size="16" font-weight="700" letter-spacing="4">PALLE PRASHANTH</text>
<text x="92" y="194" fill="#ffffff" font-family="Arial,Helvetica,sans-serif" font-size="56" font-weight="800" letter-spacing="1">FULL-STACK</text>
<text x="92" y="251" fill="url(#accent)" font-family="Arial,Helvetica,sans-serif" font-size="56" font-weight="800" letter-spacing="1">MERN DEVELOPER</text>
<rect x="94" y="273" width="610" height="3" rx="2" fill="url(#accent)"/>
<text x="92" y="311" fill="#dbeafe" font-family="Arial,Helvetica,sans-serif" font-size="19" letter-spacing="1">MongoDB  •  Express.js  •  React  •  Node.js</text>
<text x="92" y="344" fill="#64748b" font-family="Arial,Helvetica,sans-serif" font-size="14" font-weight="700" letter-spacing="2">BUILDING MODERN • RESPONSIVE • REAL-WORLD WEB APPLICATIONS</text>

<g transform="translate(925 65)">
 <rect width="548" height="270" rx="26" fill="#060a18" fill-opacity=".9" stroke="#ffffff" stroke-opacity=".12"/>
 <rect x="20" y="20" width="508" height="48" rx="14" fill="#ffffff" fill-opacity=".045"/>
 <circle cx="46" cy="44" r="6" fill="#fb7185"/><circle cx="68" cy="44" r="6" fill="#facc15"/><circle cx="90" cy="44" r="6" fill="#4ade80"/>
 <text x="118" y="50" fill="#94a3b8" font-family="monospace" font-size="14">developer.mode</text>
 <text x="36" y="103" fill="#61dafb" font-family="monospace" font-size="18">const stack = [</text>
 <text x="62" y="132" fill="#c4b5fd" font-family="monospace" font-size="17">"React", "Node.js",</text>
 <text x="62" y="159" fill="#c4b5fd" font-family="monospace" font-size="17">"Express", "MongoDB"</text>
 <text x="36" y="188" fill="#61dafb" font-family="monospace" font-size="18">];</text>
 <text x="36" y="222" fill="#94a3b8" font-family="monospace" font-size="16">// learn → build → deploy</text>
 <text x="36" y="250" fill="#22d3ee" font-family="monospace" font-size="16">✓ full-stack journey in progress</text>
</g>
<text x="1490" y="367" fill="#64748b" font-family="Arial,Helvetica,sans-serif" font-size="12" text-anchor="end" letter-spacing="2">CODE • CREATE • GROW</text>
</svg>